<?xml version="1.0" standalone="no"?>
<!DOCTYPE svg PUBLIC "-//W3C//DTD SVG 20010904//EN"
 "http://www.w3.org/TR/2001/REC-SVG-20010904/DTD/svg10.dtd">
<svg version="1.0" xmlns="http://www.w3.org/2000/svg"
 width="900.000000pt" height="900.000000pt" viewBox="0 0 900.000000 900.000000"
 preserveAspectRatio="xMidYMid meet">
<metadata>
Created by potrace 1.16, written by Peter Selinger 2001-2019
</metadata>
<g transform="translate(0.000000,900.000000) scale(0.100000,-0.100000)"
fill="#000000" stroke="none">
<path d="M6715 7909 c-445 -42 -1066 -227 -1531 -456 l-137 -67 99 -13 c309
-38 458 -135 814 -533 240 -267 348 -360 515 -441 172 -83 419 -119 597 -85
338 64 589 313 653 651 83 433 -208 856 -646 940 -87 16 -218 18 -364 4z"/>
<path d="M4725 6977 c-172 -58 -401 -197 -770 -466 -581 -423 -1196 -902
-1321 -1026 -189 -189 -286 -414 -288 -670 -1 -101 2 -129 21 -178 81 -214
289 -404 757 -690 429 -262 1108 -691 1113 -703 5 -13 -7 -111 -72 -604 -13
-102 -51 -394 -85 -650 -33 -256 -67 -510 -75 -564 -24 -174 18 -319 122 -418
150 -143 408 -121 533 46 80 108 83 117 189 693 170 917 280 1530 302 1681 30
208 -6 330 -134 456 -109 109 -418 309 -850 551 -87 48 -160 92 -162 96 -5 7
234 195 700 550 595 454 607 461 684 381 20 -20 179 -221 355 -445 175 -224
336 -423 358 -443 79 -71 156 -97 603 -204 1373 -329 1259 -304 1380 -305 98
0 116 3 167 27 196 92 239 336 87 502 -55 61 -123 108 -189 131 -51 18 -551
135 -1078 251 l-353 78 -187 246 c-387 509 -912 1209 -993 1325 -188 268 -343
361 -619 371 -112 4 -132 2 -195 -19z"/>
<path d="M1645 3594 c-16 -2 -66 -9 -110 -15 -392 -52 -796 -268 -1071 -574
-446 -496 -583 -1203 -353 -1827 287 -783 1092 -1271 1916 -1163 802 106 1424
713 1554 1520 8 45 13 161 13 265 0 194 -9 281 -50 442 -172 690 -746 1216
-1453 1334 -84 15 -387 27 -446 18z m322 -365 c242 -27 490 -125 689 -272 89
-66 236 -212 302 -302 314 -425 368 -990 141 -1474 -132 -283 -397 -548 -680
-680 -485 -227 -1049 -173 -1475 142 -89 66 -236 212 -302 302 -194 262 -296
599 -279 920 20 371 162 691 422 950 241 242 522 375 880 418 67 8 211 6 302
-4z"/>
<path d="M7045 3593 c-411 -48 -712 -173 -1000 -415 -290 -242 -488 -556 -585
-923 -44 -168 -54 -254 -54 -455 0 -260 32 -436 121 -660 243 -614 789 -1038
1451 -1125 879 -116 1723 450 1958 1313 38 141 54 249 61 417 35 934 -670
1742 -1609 1844 -91 10 -275 12 -343 4z m435 -382 c506 -102 922 -468 1085
-956 148 -439 69 -937 -208 -1311 -65 -89 -212 -236 -301 -301 -426 -315 -990
-369 -1475 -142 -283 132 -548 397 -680 680 -227 485 -173 1049 142 1475 65
89 212 236 301 301 192 142 445 244 676 273 110 13 349 4 460 -19z"/>
</g>
</svg>
