<?xml version="1.0" standalone="no"?>
<!DOCTYPE svg PUBLIC "-//W3C//DTD SVG 20010904//EN"
 "http://www.w3.org/TR/2001/REC-SVG-20010904/DTD/svg10.dtd">
<svg version="1.0" xmlns="http://www.w3.org/2000/svg"
 width="481.000000pt" height="516.000000pt" viewBox="0 0 481.000000 516.000000"
 preserveAspectRatio="xMidYMid meet">
<metadata>
Created by potrace 1.16, written by Peter Selinger 2001-2019
</metadata>
<g transform="translate(0.000000,516.000000) scale(0.100000,-0.100000)"
fill="#000000" stroke="none">
<path d="M3535 5125 c-142 -38 -265 -156 -316 -303 -27 -76 -27 -206 -1 -283
57 -171 197 -291 374 -319 183 -28 377 64 469 224 148 259 19 589 -264 678
-70 21 -189 23 -262 3z"/>
<path d="M1960 4415 c-29 -9 -116 -70 -250 -173 -113 -87 -268 -207 -345 -266
-275 -211 -352 -309 -324 -409 14 -50 31 -67 77 -78 86 -19 145 5 570 231
l393 209 237 -51 c130 -28 238 -52 240 -53 1 -1 -141 -216 -316 -476 -354
-526 -369 -551 -413 -670 -27 -74 -30 -94 -27 -169 3 -70 9 -96 33 -144 45
-91 134 -172 287 -264 120 -73 735 -487 766 -516 10 -10 -27 -110 -188 -507
-111 -271 -214 -533 -230 -581 -79 -234 -48 -391 80 -413 106 -18 209 62 336
260 45 72 636 1199 653 1245 6 18 11 63 11 100 0 77 -29 146 -82 197 -18 17
-195 142 -393 277 -198 135 -364 252 -369 259 -5 8 76 148 249 425 142 226
260 412 264 412 3 0 55 -111 116 -248 98 -222 114 -252 161 -299 78 -78 73
-78 515 -64 524 17 615 29 685 94 46 42 53 88 25 151 -17 40 -28 50 -75 72
-49 22 -88 28 -423 56 -210 18 -373 36 -380 42 -6 6 -89 187 -183 401 -94 215
-178 400 -186 412 -16 26 -463 329 -514 349 -43 17 -838 191 -906 198 -30 4
-67 0 -94 -9z"/>
<path d="M1476 2001 c-129 -179 -140 -191 -169 -191 -46 0 -922 -58 -987 -66
-175 -20 -280 -98 -280 -210 0 -100 72 -164 225 -199 111 -26 1205 -98 1277
-85 117 22 161 64 332 314 80 118 146 217 146 219 0 3 -39 36 -87 74 -160 124
-265 229 -302 302 l-18 34 -137 -192z"/>
</g>
</svg>
